<svg width="250" height="250" viewBox="0 0 250 250" fill="none" xmlns="http://www.w3.org/2000/svg">
<g clip-path="url(#clip0_3_2)">
<rect width="250" height="250" rx="60" fill="black"/>
<path d="M67.8492 165.6C63.4492 151.2 60.6492 138.1 59.4492 126.3C58.4492 114.5 57.8492 105.8 57.6492 100.2C57.6492 94.6 57.6492 89.5 57.6492 84.9C57.6492 80.1 58.0492 75.2 58.8492 70.2L60.0492 61.5C62.2492 60.3 65.2492 58.7 69.0492 56.7C73.0492 54.7 81.1492 51.8 93.3492 48C105.749 44.2 118.249 41.8 130.849 40.8C119.449 66.6 113.749 93.6 113.749 121.8C113.749 138.6 115.649 153.3 119.449 165.9C127.449 152.1 134.249 136.1 139.849 117.9C145.649 99.7 149.349 85 150.949 73.8L153.649 56.7C167.649 59.5 179.749 65.6 189.949 75C194.149 79 197.449 83.3 199.849 87.9C199.849 92.1 198.749 98.4 196.549 106.8C194.349 115 191.849 122.5 189.049 129.3C186.249 135.9 181.849 143.5 175.849 152.1C170.049 160.7 163.249 168.4 155.449 175.2C147.849 181.8 137.949 187.9 125.749 193.5C113.749 198.9 100.349 202.7 85.5492 204.9C78.1492 192.9 72.2492 179.8 67.8492 165.6Z" fill="white"/>
</g>
<defs>
<clipPath id="clip0_3_2">
<rect width="250" height="250" rx="60" fill="white"/>
</clipPath>
</defs>
</svg>
