<svg width="400" height="400" viewBox="0 0 400 400" fill="none" xmlns="http://www.w3.org/2000/svg">
<g clip-path="url(#clip0_5_6)">
<path d="M148.849 195.6C144.449 181.2 141.649 168.1 140.449 156.3C139.449 144.5 138.849 135.8 138.649 130.2C138.649 124.6 138.649 119.5 138.649 114.9C138.649 110.1 139.049 105.2 139.849 100.2L141.049 91.5C143.249 90.3 146.249 88.7 150.049 86.7C154.049 84.7 162.149 81.8 174.349 78C186.749 74.2 199.249 71.8 211.849 70.8C200.449 96.6 194.749 123.6 194.749 151.8C194.749 168.6 196.649 183.3 200.449 195.9C208.449 182.1 215.249 166.1 220.849 147.9C226.649 129.7 230.349 115 231.949 103.8L234.649 86.7C248.649 89.5 260.749 95.6 270.949 105C275.149 109 278.449 113.3 280.849 117.9C280.849 122.1 279.749 128.4 277.549 136.8C275.349 145 272.849 152.5 270.049 159.3C267.249 165.9 262.849 173.5 256.849 182.1C251.049 190.7 244.249 198.4 236.449 205.2C228.849 211.8 218.949 217.9 206.749 223.5C194.749 228.9 181.349 232.7 166.549 234.9C159.149 222.9 153.249 209.8 148.849 195.6Z" fill="white"/>
<path d="M80.3265 328L60.7425 283.2H69.7665L87.2385 323.712H82.0545L99.7185 283.2H108.039L88.5185 328H80.3265ZM130.554 328V321.088L130.106 319.616V307.52C130.106 305.173 129.402 303.36 127.994 302.08C126.586 300.757 124.453 300.096 121.594 300.096C119.674 300.096 117.775 300.395 115.898 300.992C114.063 301.589 112.506 302.421 111.226 303.488L108.09 297.664C109.925 296.256 112.101 295.211 114.618 294.528C117.178 293.803 119.823 293.44 122.554 293.44C127.503 293.44 131.322 294.635 134.01 297.024C136.741 299.371 138.106 303.019 138.106 307.968V328H130.554ZM119.802 328.448C117.242 328.448 115.002 328.021 113.082 327.168C111.162 326.272 109.669 325.056 108.602 323.52C107.578 321.941 107.066 320.171 107.066 318.208C107.066 316.288 107.514 314.56 108.41 313.024C109.349 311.488 110.863 310.272 112.954 309.376C115.045 308.48 117.818 308.032 121.274 308.032H131.194V313.344H121.85C119.119 313.344 117.285 313.792 116.346 314.688C115.407 315.541 114.938 316.608 114.938 317.888C114.938 319.339 115.514 320.491 116.666 321.344C117.818 322.197 119.418 322.624 121.466 322.624C123.429 322.624 125.178 322.176 126.714 321.28C128.293 320.384 129.423 319.061 130.106 317.312L131.45 322.112C130.682 324.117 129.295 325.675 127.29 326.784C125.327 327.893 122.831 328.448 119.802 328.448ZM148.373 328V280.512H156.373V328H148.373ZM182.361 340.864C179.204 340.864 176.11 340.437 173.081 339.584C170.094 338.773 167.641 337.579 165.721 336L169.305 329.984C170.798 331.221 172.676 332.203 174.937 332.928C177.241 333.696 179.566 334.08 181.913 334.08C185.668 334.08 188.42 333.205 190.169 331.456C191.918 329.749 192.793 327.168 192.793 323.712V317.632L193.433 309.888L193.177 302.144V293.824H200.793V322.816C200.793 329.003 199.214 333.547 196.057 336.448C192.9 339.392 188.334 340.864 182.361 340.864ZM181.337 326.464C178.094 326.464 175.15 325.781 172.505 324.416C169.902 323.008 167.833 321.067 166.297 318.592C164.804 316.117 164.057 313.216 164.057 309.888C164.057 306.603 164.804 303.723 166.297 301.248C167.833 298.773 169.902 296.853 172.505 295.488C175.15 294.123 178.094 293.44 181.337 293.44C184.238 293.44 186.841 294.016 189.145 295.168C191.449 296.32 193.284 298.112 194.649 300.544C196.057 302.976 196.761 306.091 196.761 309.888C196.761 313.685 196.057 316.821 194.649 319.296C193.284 321.728 191.449 323.541 189.145 324.736C186.841 325.888 184.238 326.464 181.337 326.464ZM182.553 319.68C184.558 319.68 186.35 319.275 187.929 318.464C189.508 317.611 190.724 316.459 191.577 315.008C192.473 313.515 192.921 311.808 192.921 309.888C192.921 307.968 192.473 306.283 191.577 304.832C190.724 303.339 189.508 302.208 187.929 301.44C186.35 300.629 184.558 300.224 182.553 300.224C180.548 300.224 178.734 300.629 177.113 301.44C175.534 302.208 174.297 303.339 173.401 304.832C172.548 306.283 172.121 307.968 172.121 309.888C172.121 311.808 172.548 313.515 173.401 315.008C174.297 316.459 175.534 317.611 177.113 318.464C178.734 319.275 180.548 319.68 182.553 319.68ZM211.311 328V293.824H218.927V303.232L218.031 300.48C219.055 298.176 220.655 296.427 222.831 295.232C225.049 294.037 227.801 293.44 231.087 293.44V301.056C230.745 300.971 230.425 300.928 230.127 300.928C229.828 300.885 229.529 300.864 229.231 300.864C226.201 300.864 223.791 301.76 221.999 303.552C220.207 305.301 219.311 307.925 219.311 311.424V328H211.311ZM237.873 328V293.824H245.873V328H237.873ZM241.905 288.192C240.412 288.192 239.174 287.723 238.193 286.784C237.254 285.845 236.785 284.715 236.785 283.392C236.785 282.027 237.254 280.896 238.193 280C239.174 279.061 240.412 278.592 241.905 278.592C243.398 278.592 244.614 279.04 245.553 279.936C246.534 280.789 247.025 281.877 247.025 283.2C247.025 284.608 246.556 285.803 245.617 286.784C244.678 287.723 243.441 288.192 241.905 288.192ZM275.765 293.44C278.496 293.44 280.928 293.973 283.061 295.04C285.237 296.107 286.944 297.749 288.181 299.968C289.418 302.144 290.037 304.96 290.037 308.416V328H282.037V309.44C282.037 306.411 281.312 304.149 279.861 302.656C278.453 301.163 276.469 300.416 273.909 300.416C272.032 300.416 270.368 300.8 268.917 301.568C267.466 302.336 266.336 303.488 265.525 305.024C264.757 306.517 264.373 308.416 264.373 310.72V328H256.373V293.824H263.989V303.04L262.645 300.224C263.84 298.048 265.568 296.384 267.829 295.232C270.133 294.037 272.778 293.44 275.765 293.44ZM314.712 328.448C311.427 328.448 308.461 327.723 305.816 326.272C303.213 324.779 301.165 322.731 299.672 320.128C298.179 317.525 297.432 314.453 297.432 310.912C297.432 307.371 298.179 304.299 299.672 301.696C301.165 299.093 303.213 297.067 305.816 295.616C308.461 294.165 311.427 293.44 314.712 293.44C317.571 293.44 320.131 294.08 322.392 295.36C324.653 296.597 326.445 298.496 327.768 301.056C329.091 303.616 329.752 306.901 329.752 310.912C329.752 314.88 329.112 318.165 327.832 320.768C326.552 323.328 324.781 325.248 322.52 326.528C320.259 327.808 317.656 328.448 314.712 328.448ZM315.672 321.6C317.592 321.6 319.299 321.173 320.792 320.32C322.328 319.467 323.544 318.229 324.44 316.608C325.379 314.987 325.848 313.088 325.848 310.912C325.848 308.693 325.379 306.795 324.44 305.216C323.544 303.595 322.328 302.357 320.792 301.504C319.299 300.651 317.592 300.224 315.672 300.224C313.752 300.224 312.024 300.651 310.488 301.504C308.995 302.357 307.779 303.595 306.84 305.216C305.944 306.795 305.496 308.693 305.496 310.912C305.496 313.088 305.944 314.987 306.84 316.608C307.779 318.229 308.995 319.467 310.488 320.32C312.024 321.173 313.752 321.6 315.672 321.6ZM326.04 328V319.936L326.36 310.848L325.72 301.76V280.512H333.656V328H326.04Z" fill="white"/>
</g>
<defs>
<clipPath id="clip0_5_6">
<rect width="400" height="400" fill="white"/>
</clipPath>
</defs>
</svg>
