<svg width="400" height="200" viewBox="0 0 400 200" fill="none" xmlns="http://www.w3.org/2000/svg">
<g clip-path="url(#clip0_6_12)">
<path d="M80.3265 122L60.7425 77.2H69.7665L87.2385 117.712H82.0545L99.7185 77.2H108.039L88.5185 122H80.3265ZM130.554 122V115.088L130.106 113.616V101.52C130.106 99.1733 129.402 97.36 127.994 96.08C126.586 94.7573 124.453 94.096 121.594 94.096C119.674 94.096 117.775 94.3947 115.898 94.992C114.063 95.5893 112.506 96.4213 111.226 97.488L108.09 91.664C109.925 90.256 112.101 89.2107 114.618 88.528C117.178 87.8027 119.823 87.44 122.554 87.44C127.503 87.44 131.322 88.6347 134.01 91.024C136.741 93.3707 138.106 97.0187 138.106 101.968V122H130.554ZM119.802 122.448C117.242 122.448 115.002 122.021 113.082 121.168C111.162 120.272 109.669 119.056 108.602 117.52C107.578 115.941 107.066 114.171 107.066 112.208C107.066 110.288 107.514 108.56 108.41 107.024C109.349 105.488 110.863 104.272 112.954 103.376C115.045 102.48 117.818 102.032 121.274 102.032H131.194V107.344H121.85C119.119 107.344 117.285 107.792 116.346 108.688C115.407 109.541 114.938 110.608 114.938 111.888C114.938 113.339 115.514 114.491 116.666 115.344C117.818 116.197 119.418 116.624 121.466 116.624C123.429 116.624 125.178 116.176 126.714 115.28C128.293 114.384 129.423 113.061 130.106 111.312L131.45 116.112C130.682 118.117 129.295 119.675 127.29 120.784C125.327 121.893 122.831 122.448 119.802 122.448ZM148.373 122V74.512H156.373V122H148.373ZM182.361 134.864C179.204 134.864 176.11 134.437 173.081 133.584C170.094 132.773 167.641 131.579 165.721 130L169.305 123.984C170.798 125.221 172.676 126.203 174.937 126.928C177.241 127.696 179.566 128.08 181.913 128.08C185.668 128.08 188.42 127.205 190.169 125.456C191.918 123.749 192.793 121.168 192.793 117.712V111.632L193.433 103.888L193.177 96.144V87.824H200.793V116.816C200.793 123.003 199.214 127.547 196.057 130.448C192.9 133.392 188.334 134.864 182.361 134.864ZM181.337 120.464C178.094 120.464 175.15 119.781 172.505 118.416C169.902 117.008 167.833 115.067 166.297 112.592C164.804 110.117 164.057 107.216 164.057 103.888C164.057 100.603 164.804 97.7227 166.297 95.248C167.833 92.7733 169.902 90.8533 172.505 89.488C175.15 88.1227 178.094 87.44 181.337 87.44C184.238 87.44 186.841 88.016 189.145 89.168C191.449 90.32 193.284 92.112 194.649 94.544C196.057 96.976 196.761 100.091 196.761 103.888C196.761 107.685 196.057 110.821 194.649 113.296C193.284 115.728 191.449 117.541 189.145 118.736C186.841 119.888 184.238 120.464 181.337 120.464ZM182.553 113.68C184.558 113.68 186.35 113.275 187.929 112.464C189.508 111.611 190.724 110.459 191.577 109.008C192.473 107.515 192.921 105.808 192.921 103.888C192.921 101.968 192.473 100.283 191.577 98.832C190.724 97.3387 189.508 96.208 187.929 95.44C186.35 94.6293 184.558 94.224 182.553 94.224C180.548 94.224 178.734 94.6293 177.113 95.44C175.534 96.208 174.297 97.3387 173.401 98.832C172.548 100.283 172.121 101.968 172.121 103.888C172.121 105.808 172.548 107.515 173.401 109.008C174.297 110.459 175.534 111.611 177.113 112.464C178.734 113.275 180.548 113.68 182.553 113.68ZM211.311 122V87.824H218.927V97.232L218.031 94.48C219.055 92.176 220.655 90.4267 222.831 89.232C225.049 88.0373 227.801 87.44 231.087 87.44V95.056C230.745 94.9707 230.425 94.928 230.127 94.928C229.828 94.8853 229.529 94.864 229.231 94.864C226.201 94.864 223.791 95.76 221.999 97.552C220.207 99.3013 219.311 101.925 219.311 105.424V122H211.311ZM237.873 122V87.824H245.873V122H237.873ZM241.905 82.192C240.412 82.192 239.174 81.7227 238.193 80.784C237.254 79.8453 236.785 78.7147 236.785 77.392C236.785 76.0267 237.254 74.896 238.193 74C239.174 73.0613 240.412 72.592 241.905 72.592C243.398 72.592 244.614 73.04 245.553 73.936C246.534 74.7893 247.025 75.8773 247.025 77.2C247.025 78.608 246.556 79.8027 245.617 80.784C244.678 81.7227 243.441 82.192 241.905 82.192ZM275.765 87.44C278.496 87.44 280.928 87.9733 283.061 89.04C285.237 90.1067 286.944 91.7493 288.181 93.968C289.418 96.144 290.037 98.96 290.037 102.416V122H282.037V103.44C282.037 100.411 281.312 98.1493 279.861 96.656C278.453 95.1627 276.469 94.416 273.909 94.416C272.032 94.416 270.368 94.8 268.917 95.568C267.466 96.336 266.336 97.488 265.525 99.024C264.757 100.517 264.373 102.416 264.373 104.72V122H256.373V87.824H263.989V97.04L262.645 94.224C263.84 92.048 265.568 90.384 267.829 89.232C270.133 88.0373 272.778 87.44 275.765 87.44ZM314.712 122.448C311.427 122.448 308.461 121.723 305.816 120.272C303.213 118.779 301.165 116.731 299.672 114.128C298.179 111.525 297.432 108.453 297.432 104.912C297.432 101.371 298.179 98.2987 299.672 95.696C301.165 93.0933 303.213 91.0667 305.816 89.616C308.461 88.1653 311.427 87.44 314.712 87.44C317.571 87.44 320.131 88.08 322.392 89.36C324.653 90.5973 326.445 92.496 327.768 95.056C329.091 97.616 329.752 100.901 329.752 104.912C329.752 108.88 329.112 112.165 327.832 114.768C326.552 117.328 324.781 119.248 322.52 120.528C320.259 121.808 317.656 122.448 314.712 122.448ZM315.672 115.6C317.592 115.6 319.299 115.173 320.792 114.32C322.328 113.467 323.544 112.229 324.44 110.608C325.379 108.987 325.848 107.088 325.848 104.912C325.848 102.693 325.379 100.795 324.44 99.216C323.544 97.5947 322.328 96.3573 320.792 95.504C319.299 94.6507 317.592 94.224 315.672 94.224C313.752 94.224 312.024 94.6507 310.488 95.504C308.995 96.3573 307.779 97.5947 306.84 99.216C305.944 100.795 305.496 102.693 305.496 104.912C305.496 107.088 305.944 108.987 306.84 110.608C307.779 112.229 308.995 113.467 310.488 114.32C312.024 115.173 313.752 115.6 315.672 115.6ZM326.04 122V113.936L326.36 104.848L325.72 95.76V74.512H333.656V122H326.04Z" fill="black"/>
</g>
<defs>
<clipPath id="clip0_6_12">
<rect width="400" height="200" fill="white"/>
</clipPath>
</defs>
</svg>
