<svg width="286" height="286" viewBox="0 0 286 286" fill="none" xmlns="http://www.w3.org/2000/svg">
<g clip-path="url(#clip0_6_2)">
<path d="M86.8492 189.6C82.4492 175.2 79.6492 162.1 78.4492 150.3C77.4492 138.5 76.8492 129.8 76.6492 124.2C76.6492 118.6 76.6492 113.5 76.6492 108.9C76.6492 104.1 77.0492 99.2 77.8492 94.2L79.0492 85.5C81.2492 84.3 84.2492 82.7 88.0492 80.7C92.0492 78.7 100.149 75.8 112.349 72C124.749 68.2 137.249 65.8 149.849 64.8C138.449 90.6 132.749 117.6 132.749 145.8C132.749 162.6 134.649 177.3 138.449 189.9C146.449 176.1 153.249 160.1 158.849 141.9C164.649 123.7 168.349 109 169.949 97.8L172.649 80.7C186.649 83.5 198.749 89.6 208.949 99C213.149 103 216.449 107.3 218.849 111.9C218.849 116.1 217.749 122.4 215.549 130.8C213.349 139 210.849 146.5 208.049 153.3C205.249 159.9 200.849 167.5 194.849 176.1C189.049 184.7 182.249 192.4 174.449 199.2C166.849 205.8 156.949 211.9 144.749 217.5C132.749 222.9 119.349 226.7 104.549 228.9C97.1492 216.9 91.2492 203.8 86.8492 189.6Z" fill="black"/>
</g>
<defs>
<clipPath id="clip0_6_2">
<rect width="286" height="286" fill="white"/>
</clipPath>
</defs>
</svg>
